<svg width="204" height="53" viewBox="0 0 204 53" fill="none" xmlns="http://www.w3.org/2000/svg">
<g clip-path="url(#clip0_107_545)">
<path d="M77.0655 11.9956H78.7837V10.1708H76.7701V5.99789L74.8505 5.7832V10.1842H71.9645V12.009H74.2868C73.7901 13.7936 73.3874 15.1085 73.0518 15.9807C72.5417 17.3224 71.9376 18.5435 71.2664 19.6571L73.186 20.9721C73.6827 19.684 74.0988 18.2751 74.4881 16.7589C74.5955 16.3161 74.7163 15.8197 74.8505 15.283V25.1584H76.7701V14.8536C77.2131 15.9673 77.7098 16.9736 78.2467 17.9128L79.5623 16.5308C78.5823 15.35 77.7366 13.8338 77.0655 12.009V11.9956Z" fill="#494949"/>
<path d="M82.8108 5.76953V12.1027C82.1396 11.1232 81.361 10.184 80.4348 9.29839L79.1327 10.506C80.1126 11.5257 81.0523 12.6662 81.9248 13.9141L82.7974 12.9614V13.6592C82.7974 14.6789 82.7571 15.6047 82.7034 16.4232C81.4013 17.3088 80.0858 18.1004 78.7703 18.7176L79.5086 20.6095C79.5086 20.6095 79.5488 20.7303 79.5757 20.7705L82.4215 18.5969L82.3678 18.825C82.1396 20.0594 81.7369 21.1865 81.2134 22.2062C80.7033 23.226 79.9784 24.1652 79.0387 25.0642L81.1194 25.9364C82.0188 24.8629 82.7034 23.8432 83.1598 22.8637C83.6968 21.7098 84.0592 20.5022 84.274 19.2543C84.5693 17.6442 84.717 15.7792 84.717 13.6592C84.717 11.5392 84.7438 9.20447 84.7841 6.68194V6.03789L82.7974 5.78295L82.8108 5.76953Z" fill="#494949"/>
<path d="M90.7442 20.972L92.4893 19.8315C91.0798 18.1409 89.6435 16.732 88.2206 15.5647V13.7131L92.1134 10.8685L90.61 9.3523C89.9119 10.0634 89.1199 10.788 88.234 11.526V5.98445L86.3144 5.75635V24.1118C86.3144 24.7558 86.4889 25.2255 86.8782 25.5341C87.254 25.8427 88.0863 26.0305 89.3884 26.0305C90.3683 26.0305 91.0664 25.8695 91.4691 25.5609C91.9389 25.2657 92.3014 24.3131 92.5161 22.7029L90.6771 21.9247C90.4757 23.1323 90.2744 23.8166 90.0462 24.0044C89.9119 24.1386 89.6837 24.2057 89.375 24.2057C88.6098 24.2057 88.234 23.9642 88.234 23.4946V18.0067C89.1199 18.9057 89.9522 19.8986 90.7576 20.972H90.7442Z" fill="#494949"/>
<path d="M94.9459 6.50781V25.8427H96.7849V25.2121H111.873V25.8427H113.712V6.50781H94.9593H94.9459ZM111.873 23.4812H96.7849V8.25212H111.873V23.4812Z" fill="#494949"/>
<path d="M105.175 11.8209V11.0427H109.792V9.63379H105.175V8.77506L103.336 8.6543V9.63379H98.7716V11.0427H103.336V11.8209H97.6574V13.2968H110.826V11.8209H105.175Z" fill="#494949"/>
<path d="M127.592 13.6457V11.5123L125.512 11.3379V13.6457H118.518V24.7154H120.625V15.5645H125.525V25.9364H127.606V15.5645H132.854V21.4146C132.854 21.9513 132.492 22.2197 131.821 22.2331L129.445 22.2733L130.223 24.3531C131.163 24.3531 132.13 24.2189 133.083 23.9908C134.318 23.6956 134.935 23.0381 134.935 22.005V13.6457H127.579H127.592Z" fill="#494949"/>
<path d="M127.592 8.85557V6.66848V5.94392L125.512 5.71582V8.85557H116.585V10.7743H136.6V8.85557H127.592Z" fill="#494949"/>
<path d="M108.437 20.301L110.611 19.2007L109.417 17.9529C108.772 18.4359 108.034 18.919 107.148 19.402C106.611 18.9324 106.141 18.3554 105.738 17.6845H109.363V14.0215H99.322V17.6845H101.805C101.403 17.9529 101 18.1541 100.637 18.3152C99.6576 18.7848 98.4629 19.1873 97.1205 19.5228L98.53 20.9048C99.5099 20.6096 100.382 20.2607 101.148 19.8179V21.3744C100.611 21.4683 100.033 21.5354 99.4025 21.6025L100.342 23.159L100.785 23.0919C102.302 22.8235 103.98 22.4478 105.859 21.9514L105.685 20.5693C104.839 20.7706 103.873 20.945 102.799 21.1329V18.6506C103.134 18.3822 103.497 18.0468 103.846 17.6979H104.275C104.745 18.8116 105.309 19.724 105.98 20.4352C106.718 21.2805 107.994 22.1795 109.806 23.0919L111.551 21.683C110.249 21.2134 109.229 20.7706 108.45 20.3278L108.437 20.301ZM101.054 16.2622V15.3901H107.604V16.2622H101.054Z" fill="#494949"/>
<path d="M153.795 8.42635C152.856 7.58103 151.889 6.84306 150.909 6.23926L149.433 7.62128C150.332 8.19824 151.218 8.96306 152.144 9.9023L153.795 8.42635Z" fill="#494949"/>
<path d="M152.829 23.1591V18.4495H157.809V16.6247H152.829V12.1834H158.507V10.3452H145.244V12.1834H150.842V16.6247H145.849V18.4495H150.842V23.1591H144.627V24.9839H158.95V23.1591H152.829Z" fill="#494949"/>
<path d="M143.741 5.93041C142.962 7.91623 142.184 9.55319 141.405 10.895C140.56 12.3709 139.553 13.7932 138.345 15.2155L139.821 16.7048C140.492 15.8595 141.097 15.0142 141.66 14.2091V25.9362H143.674V10.9486C144.184 9.99598 144.748 8.85547 145.325 7.55395L145.62 6.8294L143.741 5.91699V5.93041Z" fill="#494949"/>
<path d="M172.387 8.2521V6.06502L170.307 5.83691V8.2521H161.93V13.2032H163.917V10.0769H178.696V13.1362H180.683V8.2521H172.387Z" fill="#494949"/>
<path d="M179.475 20.7839C179.166 22.2733 178.871 23.1454 178.562 23.4004C178.2 23.709 177.69 23.8432 177.018 23.8432H172.83C172.36 23.8432 172.132 23.6016 172.132 23.0649V19.0262L181.394 18.2614L181.22 16.3427L172.146 17.1075V14.1824C172.146 14.1824 175.663 13.0553 177.367 12.3978L175.891 10.9487C173.703 11.8343 171.864 12.4247 170.387 12.7065C168.736 13.1492 166.763 13.4176 164.44 13.5518L165.823 15.4705C167.259 15.2961 168.682 15.0277 170.119 14.6923V17.2551L161.205 17.993L161.299 19.9118L170.132 19.1738V24.0981C170.132 25.1849 170.87 25.7485 172.387 25.7485H177.636C178.643 25.7485 179.475 25.4533 180.119 24.8763C180.75 24.3396 181.193 23.1857 181.488 21.4011L179.475 20.7705V20.7839Z" fill="#494949"/>
<path d="M197.248 21.8441C198.684 20.4889 199.973 18.3421 201.141 15.4036L201.557 14.3973L200.671 13.5654H197.53L199.543 7.6079L198.496 6.93701H185.918V8.76182H188.831C188.59 11.6869 188.2 14.0752 187.69 15.9269C187.113 17.953 186.375 19.7241 185.448 21.2135C184.979 22.0588 184.307 22.9712 183.462 23.9373L185.381 25.1583C186.281 24.0044 187.019 22.8638 187.623 21.6965C188.361 20.2742 189.006 18.5568 189.57 16.5441C189.663 16.1684 189.771 15.739 189.865 15.2963H190.496C190.603 16.0074 190.831 16.7454 191.14 17.5102C191.637 18.7983 192.321 19.9656 193.221 20.9854C193.462 21.294 193.758 21.616 194.093 21.8978C193.462 22.3003 192.778 22.6626 191.972 22.9712C190.858 23.4408 189.355 23.8433 187.502 24.1922L188.912 26.017C191.677 25.2522 193.919 24.2995 195.624 23.159C195.932 23.3871 196.268 23.6287 196.657 23.8568C197.906 24.635 199.436 25.3059 201.221 25.8426L203.06 23.8299C201.181 23.5213 199.704 23.0651 198.59 22.5418C198.12 22.3406 197.677 22.099 197.275 21.8307L197.248 21.8441ZM190.2 13.5654C190.442 12.1431 190.643 10.533 190.778 8.77524H197.033L195.355 13.5654H190.187H190.2ZM196.174 20.14C196.013 20.3145 195.838 20.5023 195.664 20.6768C195.422 20.5023 195.194 20.2742 194.966 20.0327C194.12 19.1337 193.476 18.2079 193.06 17.2284C192.751 16.6246 192.496 15.9806 192.362 15.3097H198.886C198.04 17.4968 197.14 19.1069 196.161 20.1535L196.174 20.14Z" fill="#494949"/>
<path d="M135.969 33.2896V35.0339H127.767V36.7782H134.492V46.0096H132.478V44.963H127.74C127.646 46.3047 127.404 47.3916 127.002 48.1966C126.961 48.304 126.908 48.3979 126.867 48.465C127.982 49.0017 129.31 49.4042 130.787 49.7128C132.304 50.1154 134.318 50.4508 136.868 50.7192L135.365 52.8123C132.948 52.4098 130.935 51.967 129.284 51.4706C127.807 51.0278 126.572 50.5582 125.592 50.0483C125.283 50.3166 124.961 50.5447 124.626 50.746C123.243 51.645 121.189 52.3293 118.41 52.8258L116.934 50.907C119.35 50.6789 121.203 50.2361 122.545 49.6189C122.988 49.4445 123.377 49.2164 123.726 48.948C122.76 48.2771 121.914 47.4721 121.203 46.5328L122.948 45.6607C123.619 46.4255 124.317 47.0159 125.001 47.4721C125.377 46.8415 125.606 45.9961 125.7 44.9764H120.961V46.023H118.947V36.7916H125.74V35.0473H117.202V33.303H135.955L135.969 33.2896ZM125.753 40.0655V38.4151H120.974V40.0655H125.753ZM125.753 43.2992V41.6488H120.974V43.2992H125.753ZM127.767 40.0655H132.478V38.4151H127.767V40.0655ZM127.767 43.2992H132.478V41.6488H127.767V43.2992Z" fill="#494949"/>
<path d="M84.18 35.0338L82.1933 34.2555C81.8175 35.0606 81.4147 35.812 80.9852 36.5365V35.5571H78.3407V32.6722L76.4211 32.5112V35.5571H73.1189V37.2074H76.4211V39.569H71.8839V41.3133H76.6493C76.2466 41.5816 75.8171 41.85 75.3741 42.0781C74.3405 42.7087 72.9847 43.3259 71.2798 43.9297L72.6625 45.4191C73.2397 45.191 73.8035 44.9495 74.3405 44.6811V52.8257H76.26V51.6852H80.9718V52.8257H82.8779V43.1381H77.1594C78.0722 42.5745 78.9045 41.9841 79.616 41.3133H83.7773V39.569H81.2268C82.0054 38.5895 82.8511 37.3416 83.7773 35.8254L84.18 35.0338ZM80.9852 50.0348H76.2735V48.21H80.9852V50.0348ZM80.9852 44.7884V46.6133H76.2735V44.7884H80.9852ZM79.2804 38.8981C79.1059 39.1262 78.9045 39.3409 78.6763 39.569H78.3407V37.2074H80.5556C80.1529 37.8381 79.7234 38.3882 79.2804 38.8981Z" fill="#494949"/>
<path d="M90.9053 33.7188H84.7304V52.9061H86.6366V35.4631H89.7911L87.6836 40.9509C89.3213 43.1782 90.1402 44.9896 90.1402 46.3717C90.1402 47.0426 89.9657 47.5256 89.6032 47.861C89.2273 48.2636 88.4219 48.5588 87.1601 48.7063L87.9387 50.6251C89.1468 50.6251 90.1267 50.2628 90.8919 49.5382C91.657 48.8003 92.0598 47.7939 92.0598 46.5327C92.0598 44.7884 91.2275 42.8696 89.6032 40.8033L92.2208 34.7788L90.9053 33.7322V33.7188Z" fill="#494949"/>
<path d="M105.228 35.6376V32.7662L103.161 32.5649V35.6376H94.2344V37.5563H114.249V35.6376H105.228Z" fill="#494949"/>
<path d="M105.228 40.4277V38.3077L103.148 38.1333V40.4411H96.154V51.5108H98.2481V42.3599H103.148V52.7318H105.228V42.3599H110.477V48.21C110.477 48.7467 110.115 49.0151 109.443 49.0285L107.067 49.0687L107.846 51.1485C108.786 51.1485 109.752 51.0143 110.705 50.7862C111.94 50.491 112.558 49.8336 112.558 48.8004V40.4411H105.202L105.228 40.4277Z" fill="#494949"/>
<path d="M141.835 40.253L143.58 39.9175C143.352 39.1125 143.016 38.2672 142.533 37.3682L140.788 37.7304C141.19 38.5087 141.553 39.354 141.835 40.253Z" fill="#494949"/>
<path d="M146.238 46.0096H149.527V44.2653H145.768V42.3465H150.037V40.6022H146.882L148.587 38.2004L146.869 37.2344L145.312 39.9716L146.627 40.6022H139.298V42.3465H143.929V44.2653H139.902V46.0096H143.298C142.627 47.0293 142.063 47.7941 141.62 48.304C140.882 49.1493 140.009 49.9141 139.029 50.6253L140.949 51.9402C141.754 51.0949 142.452 50.1825 143.07 49.203C143.338 48.7736 143.634 48.2906 143.916 47.7539V52.7318H145.755V47.7807C146.426 48.7602 147.204 49.6592 148.104 50.4642L149.419 49.0822C148.171 48.2772 147.11 47.2574 146.224 46.023L146.238 46.0096Z" fill="#494949"/>
<path d="M145.674 35.2079V33.0074L143.754 32.8062V35.2079H139.821V36.9522H149.433V35.2079H145.674Z" fill="#494949"/>
<path d="M152.668 36.7778C152.668 36.7778 156.507 35.8117 158.386 34.5236L157.017 33.1147C155.809 33.7588 154.802 34.2284 153.956 34.5236C153.446 34.698 152.842 34.8859 152.144 35.0335L150.829 34.5907V42.1717C150.829 44.6272 150.694 46.4788 150.466 47.7266C150.305 48.572 150.037 49.4173 149.661 50.2223C149.486 50.598 149.191 51.0677 148.815 51.6715L150.466 52.812C150.976 51.9666 151.379 51.1616 151.648 50.4236C152.077 49.2697 152.359 48.0353 152.493 46.6935C152.587 45.5798 152.654 44.0636 152.654 42.1717V41.5679H155.178V52.5436H157.017V41.5679H158.856V39.7431H152.668V36.7778Z" fill="#494949"/>
<path d="M172.293 36.9526V32.8199L170.213 32.6187V36.9526H163.393V46.8817H165.501V45.5668H170.213V52.7318H172.293V45.5668H177.099V46.8817H179.206V36.9526H172.293ZM170.213 43.648H165.501V38.8713H170.213V43.648ZM177.099 43.648H172.293V38.8713H177.099V43.648Z" fill="#494949"/>
<path d="M187.677 40.2261L185.932 39.6626C185.623 41.8094 185.301 43.5269 184.952 44.7747C184.589 46.0897 184.146 47.3912 183.569 48.6391L185.583 49.954C186.012 48.8403 186.388 47.6059 186.751 46.2239C187.073 44.8687 187.368 43.272 187.623 41.5008C187.677 41.0849 187.69 40.5884 187.69 40.2261H187.677Z" fill="#494949"/>
<path d="M195.798 40.1593L197.114 38.7772C195.503 36.8853 193.516 35.0739 191.167 33.3833L189.784 34.7653C191.959 36.3755 193.959 38.1734 195.798 40.1593Z" fill="#494949"/>
<path d="M199.208 39.1128L197.704 40.5217C199.476 42.4806 201.1 44.6543 202.604 47.0561L203.987 45.5667C202.684 43.3125 201.087 41.1657 199.208 39.1262V39.1128Z" fill="#494949"/>
<path d="M200 46.1836C199.664 48.1426 199.235 49.3234 198.698 49.7125C198.201 50.1553 197.463 50.3565 196.51 50.3565H192.912C192.214 50.3565 191.771 50.2224 191.57 49.9272C191.341 49.6186 191.261 49.0953 191.261 48.4378V38.3477L189.153 38.0659V48.9745C189.153 50.0211 189.382 50.7993 189.825 51.3897C190.335 51.9667 191.073 52.2887 192.039 52.2887H197.892C198.792 52.2887 199.57 51.9935 200.201 51.4165C200.886 50.7725 201.503 49.3368 202.013 47.0692L200 46.1971V46.1836Z" fill="#494949"/>
<path d="M0.885949 38.0793H60.5677C60.9167 38.0793 61.1852 38.3611 61.1852 38.6965V39.6224C61.1852 39.9712 60.9033 40.253 60.5543 40.253H0.885949C0.536933 40.253 0.255035 39.9712 0.255035 39.6224V38.6965C0.255035 38.3477 0.536933 38.0659 0.885949 38.0659V38.0793Z" fill="#687779"/>
<path d="M8.14819 12.854L0 17.2282V29.6127C0.72488 29.3981 1.51688 29.1968 2.24176 28.9821C2.24176 24.6616 2.24176 22.5953 2.24176 18.2748L8.14819 15.2692V27.5464L14.0009 25.6411L9.5711 23.5211V22.2732L14.8735 24.8092V25.3593V16.1682L8.13476 12.854H8.14819ZM14.8869 23.2527L9.58452 20.7168V19.4689L14.8869 22.0049V23.2527ZM14.8869 20.4753L9.58452 17.9393V16.6915L14.8869 19.2274V20.4753Z" fill="#687779"/>
<path d="M2.30888 32.8199V30.8072L23.0082 24.8363V22.77L0 29.385V34.7789H23.0082V32.8199H2.30888Z" fill="#E73218"/>
<path d="M35.3312 19.3081V17.698C39.5462 19.5362 42.1236 22.5552 43.5868 24.863V20.0595C43.5868 20.0595 42.0028 15.6048 35.3043 11.7539V10.1706C41.3584 12.9615 43.5868 17.4162 43.5868 17.4162V13.0689C43.5868 4.40101 32.6733 0 32.6733 0V34.7787H37.2776V29.7605L39.8013 29.197C38.5663 27.5734 35.4386 25.7889 35.4386 25.7889L35.4117 24.1251C38.8885 25.8962 40.6201 27.9223 41.2913 28.8749L43.6002 28.3651V27.5197C41.251 22.6089 35.3446 19.3081 35.3446 19.3081H35.3312Z" fill="#687779"/>
<path d="M39.2509 34.7786H60.9302L58.9972 33.249H38.5126L39.2509 34.7786Z" fill="white"/>
<path d="M7.77233 43.4736H1.94644C1.63769 43.4736 1.3558 43.5944 1.14102 43.8091C0.926237 44.0237 0.818848 44.2921 0.818848 44.6007C0.818848 44.9093 0.926237 45.1777 1.14102 45.3923C1.3558 45.607 1.62427 45.7144 1.93302 45.7144H3.69152V51.7792C3.69152 52.0878 3.81233 52.3696 4.02711 52.5977C4.25532 52.8258 4.52379 52.9331 4.84596 52.9331C5.16813 52.9331 5.4366 52.8123 5.6648 52.5977C5.89301 52.3696 6.01382 52.0878 6.01382 51.7792V45.7144H7.7589C8.06765 45.7144 8.33612 45.607 8.5509 45.3923C8.7791 45.1777 8.88649 44.8959 8.88649 44.5873C8.88649 44.2787 8.76568 44.0103 8.5509 43.7822C8.33612 43.5675 8.05422 43.4468 7.74548 43.4468L7.77233 43.4736Z" fill="#E73218"/>
<path d="M17.9743 43.4199C17.5582 43.4199 17.2092 43.6212 16.981 43.9566L15.0614 46.7609L13.1418 43.97C12.9136 43.6212 12.5512 43.4199 12.1485 43.4199C11.8263 43.4199 11.5444 43.5407 11.3296 43.7822C11.1148 44.0103 11.0074 44.2787 11.0074 44.5873C11.0074 44.7751 11.0611 44.9764 11.1685 45.1911C11.182 45.2179 11.1954 45.2447 11.2222 45.2716L13.8935 49.0151V51.7926C13.8935 52.1146 14.0144 52.3964 14.2426 52.6111C14.4708 52.8257 14.7527 52.9465 15.0614 52.9465C15.3701 52.9465 15.652 52.8257 15.8803 52.6111C16.095 52.3964 16.2158 52.1012 16.2158 51.7926V49.0151L18.9006 45.2716C18.9006 45.2716 18.9409 45.2045 18.9677 45.1642C19.0751 44.9361 19.1154 44.7483 19.1154 44.5604C19.1154 44.2518 18.9945 43.9835 18.7798 43.7554C18.565 43.5407 18.2831 43.4199 17.9743 43.4199Z" fill="#E73218"/>
<path d="M28.3374 43.4199C28.0153 43.4199 27.7334 43.5407 27.5186 43.7688C27.3038 43.9969 27.183 44.2787 27.183 44.5873V47.0695H24.015V44.5873C24.015 44.2787 23.8942 43.9969 23.666 43.7688C23.4378 43.5407 23.1559 43.4199 22.8471 43.4199C22.5384 43.4199 22.2431 43.5407 22.0283 43.7688C21.8135 43.9969 21.6927 44.2787 21.6927 44.5873V51.7926C21.6927 52.1012 21.8135 52.383 22.0283 52.6111C22.2431 52.8392 22.525 52.9465 22.8471 52.9465C23.1693 52.9465 23.4378 52.8257 23.666 52.6111C23.8942 52.383 24.015 52.1012 24.015 51.7926V49.3103H27.183V51.7926C27.183 52.1012 27.3038 52.383 27.5186 52.6111C27.7334 52.8392 28.0287 52.9465 28.3374 52.9465C28.6462 52.9465 28.9281 52.8257 29.1563 52.6111C29.3845 52.383 29.5053 52.1012 29.5053 51.7926V44.5873C29.5053 44.2787 29.3845 43.9969 29.1563 43.7688C28.9281 43.5407 28.6462 43.4199 28.3374 43.4199Z" fill="#E73218"/>
<path d="M39.6402 43.4199C39.318 43.4199 39.0361 43.5407 38.8214 43.7688C38.6066 43.9969 38.4858 44.2787 38.4858 44.5873V49.2432C38.4858 49.5787 38.4186 49.847 38.271 50.0885C38.1367 50.3166 37.9354 50.4911 37.6803 50.5984C37.4119 50.7192 37.13 50.7862 36.8212 50.7862C36.5125 50.7862 36.2306 50.7192 35.9621 50.5984C35.7205 50.4776 35.5325 50.3166 35.3849 50.0885C35.3849 50.0885 35.3849 50.0751 35.3715 50.0617C35.2238 49.8604 35.1567 49.5787 35.1567 49.2432V44.5873C35.1567 44.2787 35.0359 43.9969 34.8077 43.7688C34.5795 43.5407 34.2976 43.4199 33.9888 43.4199C33.6801 43.4199 33.3848 43.5407 33.17 43.7688C32.9552 43.9969 32.8344 44.2787 32.8344 44.5873V49.203C32.8344 49.9946 33.0223 50.6923 33.4116 51.2827C33.8009 51.8731 34.311 52.3159 34.9553 52.6111C35.546 52.8794 36.1635 53.0136 36.8078 53.0136C37.4521 53.0136 38.1099 52.866 38.7005 52.5976C39.3046 52.3159 39.8147 51.8865 40.1906 51.323C40.5933 50.7326 40.7812 50.0214 40.7812 49.2164V44.6007C40.7812 44.2921 40.6604 44.0103 40.4322 43.7822C40.204 43.5541 39.9221 43.4333 39.6134 43.4333L39.6402 43.4199Z" fill="#E73218"/>
<path d="M51.8423 46.479C51.8423 45.5531 51.4933 44.8152 50.7819 44.265C50.1241 43.7418 49.1979 43.4868 48.03 43.4868H45.305C44.9828 43.4868 44.7009 43.6076 44.4861 43.8357C44.2714 44.0638 44.1505 44.3455 44.1505 44.6542V51.8058C44.1505 52.1144 44.2714 52.3962 44.4861 52.6243C44.7143 52.8524 44.9962 52.9597 45.305 52.9597C45.6137 52.9597 45.8956 52.839 46.1238 52.6243C46.352 52.3962 46.4728 52.1144 46.4728 51.8058V49.7261H48.2582C48.6072 49.7261 48.8623 49.7931 49.0233 49.9273C49.1979 50.0749 49.3052 50.2628 49.3589 50.4909C49.4261 50.7861 49.4529 51.1081 49.4529 51.4569V51.8058C49.4529 52.1412 49.5737 52.423 49.7885 52.6377C50.0033 52.8524 50.2852 52.9597 50.6208 52.9597C50.9564 52.9597 51.2114 52.839 51.4396 52.6243C51.6678 52.4096 51.7752 52.1144 51.7752 51.8058V51.2691C51.7752 50.558 51.641 49.9139 51.3859 49.3235C51.2651 49.0552 51.104 48.8137 50.9161 48.6124C51.0772 48.4648 51.2248 48.3038 51.3591 48.1159C51.6947 47.6329 51.8558 47.0828 51.8558 46.479H51.8423ZM46.4728 45.741H47.8958C48.7683 45.741 49.1307 45.902 49.265 45.9825C49.3858 46.063 49.52 46.1972 49.52 46.5595C49.52 46.8278 49.4261 47.0023 49.2113 47.1499C48.9294 47.3377 48.5132 47.445 47.9629 47.445H46.4728V45.741Z" fill="#E73218"/>
<path d="M61.5477 50.1285C61.3597 50.1285 61.1852 50.1687 61.0376 50.2492C60.7288 50.4102 60.4201 50.531 60.1382 50.6115C59.8697 50.692 59.5475 50.7188 59.1851 50.7188C58.6482 50.7188 58.1917 50.6115 57.8025 50.3968C57.44 50.1821 57.1581 49.9004 56.9702 49.5113C56.7823 49.149 56.6749 48.6928 56.6749 48.1695C56.6749 47.6462 56.7688 47.19 56.9702 46.8143C57.1581 46.4386 57.4266 46.1568 57.789 45.9421C58.1515 45.7275 58.6079 45.6201 59.1717 45.6201C59.5341 45.6201 59.8429 45.6604 60.1248 45.7275C60.4067 45.808 60.702 45.9287 61.0241 46.0897C61.1718 46.1702 61.3463 46.2105 61.5342 46.2105C61.843 46.2105 62.1115 46.0897 62.3262 45.875C62.5276 45.6604 62.635 45.4054 62.635 45.1371C62.635 44.6943 62.4202 44.332 62.0309 44.1307C61.5611 43.8624 61.0913 43.6611 60.6349 43.5269C60.165 43.3928 59.6415 43.3257 59.0777 43.3257C58.1917 43.3257 57.3729 43.5269 56.6614 43.9161C55.95 44.3186 55.3728 44.8821 54.9701 45.6201C54.5673 46.3447 54.3526 47.2034 54.3526 48.1561C54.3526 49.1087 54.5539 49.9406 54.9566 50.6786C55.3728 51.4166 55.95 51.9935 56.6749 52.3961C57.3863 52.7852 58.1783 52.9864 59.0643 52.9864C59.6281 52.9864 60.1516 52.9194 60.6214 52.7852C61.0778 52.651 61.5477 52.4497 62.0309 52.1814C62.4068 51.9801 62.6216 51.6178 62.6216 51.1885C62.6216 50.8933 62.5142 50.6383 62.2994 50.4371C62.098 50.2358 61.8161 50.1285 61.5208 50.1285H61.5477Z" fill="#E73218"/>
<path d="M54.7687 26.2318V10.2915C49.0368 11.9285 46.3386 17.0675 46.3386 17.0675V20.7171L43.5868 21.4953V27.909L37.2776 29.774V34.7923H61.3732V30.5791L54.7687 26.2452V26.2318ZM48.9562 26.9295L47.0501 27.493V25.8561L48.9562 25.2925V26.9295ZM48.9562 23.8434L47.0501 24.4069V22.77L48.9562 22.2064V23.8434Z" fill="#F39917"/>
<path d="M23.0082 5.55518L12.7794 11.3516V26.0977C12.7794 26.0977 14.7795 26.0575 15.1956 25.9367V12.3714L23.0082 7.90328V34.7656H26.1628V29.6802C26.1628 29.0764 26.5521 28.5263 27.1024 28.2714C28.5925 27.6005 30.3107 29.1301 30.3107 30.6463V34.7656H32.6464V11.7676L23.0082 5.55518ZM27.2098 15.9539L25.1694 14.7329V11.7542L27.2098 12.9752V15.9539ZM30.4986 20.4623L28.4582 19.2413V16.2625L30.4986 17.4835V20.4623Z" fill="#E73218"/>
</g>
<defs>
<clipPath id="clip0_107_545">
<rect width="204" height="53" fill="white"/>
</clipPath>
</defs>
</svg>
