<svg width="176" height="37" viewBox="0 0 176 37" fill="none" xmlns="http://www.w3.org/2000/svg">
<g clip-path="url(#clip0_280_13126)">
<path d="M0.539667 9.03318C0.483014 7.69364 0.55797 6.37604 1.12101 5.1277C2.2227 2.68546 4.07396 1.14853 6.69569 0.72658C8.61579 0.41779 10.5769 0.354629 12.4691 0.987998C14.7326 1.74594 16.2544 3.30479 17.1173 5.52773C17.2881 5.9681 17.2201 6.04969 16.7129 6.04354C14.5775 6.01899 12.5501 6.43393 10.7373 7.61821C7.79302 9.54112 6.20322 12.265 6.05769 15.8143C6.04375 16.1494 6.04113 16.4871 6.05595 16.8222C6.07338 17.2134 5.90604 17.2678 5.57658 17.1494C3.91794 16.5564 2.59836 15.5327 1.65704 14.0317C0.902248 12.8281 0.520492 11.5131 0.538795 10.085C0.543153 9.73411 0.538795 9.38407 0.538795 9.03318H0.539667Z" fill="white"/>
<path d="M8.98014 36.4602C7.35204 36.5847 5.75267 36.3497 4.30409 35.4917C1.93686 34.0908 0.644289 31.9994 0.552772 29.2212C0.514422 28.0702 0.423777 26.9061 0.632958 25.7648C1.16637 22.8533 2.87294 20.9304 5.60886 19.8961C5.99585 19.7496 6.06993 19.9285 6.05424 20.261C5.97667 21.8909 6.17191 23.4857 6.87268 24.9648C8.55742 28.5211 11.3474 30.5388 15.2652 30.9371C15.7724 30.9888 16.2789 30.9958 16.787 31.0011C17.2228 31.0055 17.2812 31.0959 17.1112 31.5459C16.3547 33.5434 15.0002 34.9803 13.0645 35.8531C11.7736 36.4347 10.4043 36.5444 8.98014 36.4593V36.4602Z" fill="white"/>
<path d="M36.4966 9.07961C36.4905 10.0858 36.5471 11.092 36.2482 12.0789C35.5021 14.5422 33.9332 16.2142 31.5442 17.1133C31.0962 17.2818 31.0387 17.2388 31.0422 16.759C31.057 14.6895 30.6901 12.7114 29.5762 10.9376C27.7781 8.07515 25.1999 6.45751 21.8426 6.11539C21.3074 6.061 20.7722 6.02152 20.2353 6.04696C19.8431 6.06538 19.7917 5.89871 19.9189 5.56887C20.9927 2.8038 22.9748 1.10195 25.8902 0.688766C27.7685 0.422961 29.6834 0.387871 31.5364 1.0072C34.4318 1.97393 36.487 4.82672 36.4974 7.89616C36.4992 8.29093 36.4974 8.68485 36.4974 9.07961H36.4966Z" fill="white"/>
<path d="M36.4945 27.9861C36.4805 28.9186 36.5407 29.8511 36.3115 30.7757C35.4957 34.0698 32.5479 36.4479 29.1749 36.4681C27.9155 36.476 26.6447 36.5989 25.3992 36.3032C22.76 35.6769 20.9366 34.0925 19.9474 31.5486C19.7513 31.0433 19.7888 30.9924 20.3291 31.0011C22.2335 31.0328 24.0726 30.7336 25.7443 29.7748C28.8934 27.9694 30.6941 25.2675 30.9756 21.5945C31.0105 21.1436 31.0418 20.6901 31.0331 20.2392C31.0262 19.8382 31.1848 19.7988 31.5099 19.9225C33.8745 20.8234 35.4678 22.4568 36.2278 24.8999C36.5424 25.9114 36.5024 26.9483 36.4937 27.9861H36.4945Z" fill="white"/>
<path d="M9.34543 16.4986C9.37159 12.587 12.5189 9.43149 16.4044 9.42188C16.4916 9.42188 16.5787 9.42188 16.6659 9.42188C17.3074 9.42188 17.604 9.74818 17.5558 10.4008C17.2768 14.1985 14.7179 16.9591 10.964 17.4934C10.5787 17.5486 10.1812 17.5109 9.78992 17.5372C9.43954 17.5609 9.32012 17.3977 9.34369 17.0679C9.35674 16.8784 9.34627 16.6881 9.34543 16.4977V16.4986Z" fill="white"/>
<path d="M20.6125 9.42171C24.783 9.43049 28.0384 12.9956 27.6932 17.1677C27.6723 17.4239 27.5756 17.5169 27.322 17.5362C23.5349 17.8239 19.9073 14.7544 19.5456 10.9437C19.5116 10.5805 19.4977 10.2156 19.4733 9.85242C19.4515 9.53224 19.5997 9.39977 19.9152 9.41907C20.147 9.43307 20.3798 9.42171 20.6116 9.42081L20.6125 9.42171Z" fill="white"/>
<path d="M16.4294 27.6279C12.264 27.6157 8.99298 24.0365 9.34252 19.8801C9.36429 19.624 9.46188 19.5222 9.71467 19.5108C13.7396 19.3213 17.1153 22.361 17.4875 26.1015C17.5232 26.4639 17.5372 26.8288 17.5624 27.1929C17.5842 27.5095 17.4448 27.6499 17.1258 27.6297C16.8939 27.6148 16.6612 27.6271 16.4294 27.6279Z" fill="white"/>
<path d="M20.5961 27.6289C20.5089 27.6289 20.4218 27.6289 20.3346 27.6289C19.7292 27.6289 19.4436 27.3193 19.4778 26.6999C19.7062 22.5383 23.0818 19.4021 27.2123 19.51C27.4886 19.5171 27.6786 19.5495 27.6952 19.9048C27.7893 21.8698 27.2969 23.6357 25.9973 25.141C24.588 26.7745 22.7481 27.6245 20.5952 27.6298L20.5961 27.6289Z" fill="white"/>
</g>
<path d="M52.94 13.116V16.068H50.684V11.028H59.396C59.084 10.308 58.7 9.444 58.388 8.772L60.836 8.172C61.292 9.06 61.868 10.188 62.228 11.028H70.364V16.068H67.988V13.116H52.94ZM63.596 20.004H57.884C57.428 20.796 56.996 21.54 56.564 22.212C58.124 22.74 59.756 23.316 61.34 23.94C62.348 22.884 63.068 21.588 63.596 20.004ZM70.94 20.004H66.26C65.636 21.972 64.82 23.58 63.716 24.924C66.428 26.076 68.948 27.324 70.7 28.428L69.02 30.396C67.34 29.244 64.796 27.9 61.964 26.652C59.516 28.62 56.156 29.748 51.644 30.444C51.428 29.868 50.732 28.788 50.252 28.212C54.212 27.756 57.212 26.964 59.42 25.548C57.236 24.66 55.004 23.868 52.988 23.22C53.636 22.308 54.38 21.204 55.076 20.004H50.132V17.892H56.276C56.996 16.548 57.62 15.18 58.076 13.932L60.62 14.388C60.188 15.516 59.636 16.716 59.036 17.892H64.148C64.292 17.196 64.412 16.428 64.508 15.612L67.22 15.828C67.1 16.548 66.98 17.244 66.836 17.892H70.94V20.004ZM80.108 18.108H87.26V15.756H80.132V16.524C80.132 17.028 80.132 17.556 80.108 18.108ZM93.356 11.556H80.132V13.788H93.356V11.556ZM92.996 27.66V24.516H83.804V27.66H92.996ZM96.908 20.124H89.492V22.548H95.204V30.348H92.996V29.604H83.804V30.372H81.668V22.548H87.26V20.124H80.012C79.772 23.652 79.076 27.612 77.204 30.444C76.772 30.084 75.788 29.484 75.212 29.268C77.684 25.596 77.876 20.34 77.876 16.524V9.588H95.612V15.756H89.492V18.108H96.908V20.124ZM108.5 16.596C110.036 16.596 111.284 17.844 111.284 19.38C111.284 20.916 110.036 22.164 108.5 22.164C106.964 22.164 105.716 20.916 105.716 19.38C105.716 17.844 106.964 16.596 108.5 16.596ZM126.308 15.42L123.548 15.612C123.212 17.412 122.828 19.14 122.468 20.628C123.236 21.228 124.052 21.9 124.844 22.572C125.948 20.076 126.236 17.58 126.308 15.42ZM129.716 15.204L128.372 15.3C128.324 17.892 127.964 21.036 126.572 24.036C127.748 25.092 128.804 26.124 129.5 26.94L128.012 28.812C127.388 28.02 126.476 27.06 125.444 26.076C124.388 27.636 122.996 29.124 121.148 30.468C120.812 29.988 120.068 29.244 119.564 28.884C121.46 27.588 122.828 26.1 123.812 24.564C122.54 23.412 121.22 22.308 120.068 21.348C120.524 19.86 120.98 17.844 121.388 15.756L119.732 15.852L119.492 13.716L121.772 13.62C122.036 11.82 122.276 10.02 122.42 8.412L124.604 8.532C124.436 10.092 124.196 11.796 123.932 13.524L126.332 13.404V11.748H128.396V13.284L129.74 13.212L129.716 15.204ZM141.596 18.324V20.46H136.532V27.876C136.532 29.1 136.268 29.7 135.404 30.036C134.564 30.372 133.34 30.42 131.468 30.42C131.348 29.796 131.012 28.884 130.7 28.284C132.02 28.332 133.364 28.332 133.724 28.308C134.108 28.308 134.252 28.212 134.252 27.852V20.46H128.948V18.324H134.252V15.78C135.38 14.796 136.556 13.356 137.444 12.036H129.956V9.996H138.98L139.484 9.876L141.02 10.956C139.868 12.708 138.236 14.748 136.532 16.236V18.324H141.596ZM148.388 12.42V14.748H146.204V10.404H155.588C155.372 9.828 155.084 9.228 154.796 8.7L156.98 8.1C157.388 8.796 157.868 9.708 158.108 10.404H166.82V14.748H164.54V12.42H148.388ZM160.484 16.164H155.852C154.748 17.22 153.572 18.252 152.372 19.14L160.58 18.564C160.028 18.084 159.452 17.604 158.948 17.172L160.484 16.164ZM165.26 20.436L163.532 21.636C163.196 21.18 162.74 20.676 162.188 20.1C151.196 21.012 149.972 21.084 149.132 21.42C149.036 20.988 148.748 19.98 148.508 19.428C148.988 19.356 149.516 19.044 150.14 18.564C150.62 18.252 151.796 17.316 152.996 16.164H148.724V14.244H164.42V16.164H160.676C162.308 17.436 164.3 19.212 165.26 20.436ZM157.604 27.756H167.084V29.724H146.012V27.756H155.324V25.044H148.124V23.124H155.324V20.916H157.604V23.124H165.068V25.044H157.604V27.756Z" fill="white"/>
<defs>
<clipPath id="clip0_280_13126">
<rect width="36" height="36" fill="white" transform="translate(0.5 0.5)"/>
</clipPath>
</defs>
</svg>
