<svg width="24" height="24" viewBox="0 0 24 24" fill="none" xmlns="http://www.w3.org/2000/svg">
<g clip-path="url(#clip0_1180_107591)">
<path d="M4.39453 9.13346V5.4668H7.69123L9.31761 10.0001C9.31761 10.0001 7.60332 9.33346 4.39453 9.13346Z" fill="#2D9FD1"/>
<path d="M10.9004 10.2004L12.7905 5.40039H16.0432V12.4004C16.0432 12.4004 14.6367 11.6004 13.7136 11.2004C13.7136 9.73372 13.7136 9.73372 13.7136 9.73372L13.1861 11.0004C13.1861 11.0004 11.296 10.2671 10.9004 10.2004Z" fill="#2D9FD1"/>
<path d="M4.43945 11.1999L6.72517 11.9999V16.0665H4.43945C4.43945 16.1332 4.43945 11.1332 4.43945 11.1999Z" fill="#2D9FD1"/>
<path d="M7.86719 12.5352L9.22983 16.1352H11.2078L11.7353 14.6685L7.86719 12.5352Z" fill="#2D9FD1"/>
<path d="M11.2527 19.534C11.2966 19.4007 12.0439 19.534 12.4395 19.534C13.3626 19.4673 14.3296 19.734 15.1648 19.134C15.8681 18.534 15.0769 17.0673 14.7252 16.4673C13.1868 14.2007 10.9889 13.334 9.01093 12.4007C6.28565 11.2007 3.51642 10.4673 0.659276 9.93398C0.571364 9.93398 0.263672 9.86732 0.263672 9.73398C0.263672 9.60065 0.439496 9.53398 0.527408 9.46732C0.966969 9.33398 1.36257 9.33398 1.84609 9.33398C5.58235 9.66732 9.18675 10.4007 12.8351 11.6007C13.89 12.0007 14.945 12.4007 15.9999 13.0007C16.0879 13.0673 16.1758 13.0673 16.2637 13.0007C18.4615 11.0673 21.0109 10.4673 23.5164 10.334C23.6043 10.334 23.7362 10.4007 23.7362 10.534C23.7362 10.6673 23.6043 10.734 23.5604 10.8007C22.5933 11.2673 21.6263 11.6007 20.6593 12.134C19.912 12.6673 15.7362 14.6673 16.6153 16.334C18.6373 20.2673 16.3516 20.8673 14.1098 20.6007C13.7582 20.4007 11.0769 20.134 11.2527 19.534Z" fill="#CA2357"/>
<path d="M6.72616 17.9338C6.72616 18.6672 6.19868 19.2005 5.49539 19.2005H4.39648V16.6672H5.45143C6.24264 16.6005 6.72616 17.2005 6.72616 17.9338ZM4.96791 18.6005H5.45143C5.84703 18.6005 6.11077 18.3338 6.11077 17.8672C6.11077 17.4005 5.84703 17.1338 5.45143 17.1338H4.96791V18.6005Z" fill="#8C8C8C"/>
<path d="M8.7465 18.5349H7.91134L7.69156 19.2016H7.07617L7.95529 16.6016H8.65859L9.53771 19.2016H8.92233L8.7465 18.5349ZM8.65859 18.0682L8.3509 17.0682L7.99925 18.0016H8.65859V18.0682Z" fill="#8C8C8C"/>
<path d="M13.7582 18.5349H12.9231L12.7033 19.2016H12.0879L12.967 16.6016H13.6703L14.5494 19.2016H13.934L13.7582 18.5349ZM13.6703 18.0682L13.3626 17.1349L13.011 18.0682H13.6703Z" fill="#8C8C8C"/>
<path d="M11.9116 17.2016H11.2083V19.2016H10.6369V17.2016H9.93359V16.6016H11.9556V17.2016H11.9116Z" fill="#8C8C8C"/>
</g>
<defs>
<clipPath id="clip0_1180_107591">
<rect width="24" height="16" fill="white" transform="translate(0 5)"/>
</clipPath>
</defs>
</svg>
